<svg width="20" height="22" viewBox="0 0 20 22" fill="none" xmlns="http://www.w3.org/2000/svg">
<path d="M15.252 11.49C14.968 13.855 13.419 14.8 12.75 15.486C12.08 16.174 12.2 16.311 12.245 17.32C12.2525 17.4449 12.2344 17.5699 12.1917 17.6875C12.1491 17.805 12.0828 17.9126 11.997 18.0036C11.9111 18.0946 11.8076 18.167 11.6927 18.2164C11.5779 18.2659 11.4541 18.2912 11.329 18.291H8.67101C8.54603 18.2908 8.42241 18.2651 8.30768 18.2156C8.19295 18.166 8.08953 18.0936 8.00372 18.0027C7.91791 17.9118 7.85151 17.8044 7.80858 17.6871C7.76565 17.5697 7.74708 17.4448 7.75401 17.32C7.75401 16.33 7.84601 16.1 7.25001 15.486C6.49001 14.726 4.70201 13.653 4.70201 10.702C4.69744 9.96902 4.84478 9.24302 5.13472 8.56978C5.42466 7.89655 5.85093 7.29068 6.38665 6.79037C6.92238 6.29005 7.55593 5.90615 8.24739 5.66284C8.93885 5.41954 9.67321 5.32211 10.4042 5.37671C11.1352 5.43131 11.8469 5.63675 12.4946 5.98007C13.1422 6.32339 13.7117 6.79716 14.1671 7.37151C14.6226 7.94585 14.9541 8.60833 15.1408 9.31716C15.3276 10.026 15.3654 10.7658 15.252 11.49Z" stroke="#9E75F0" stroke-width="1.5" stroke-linecap="round" stroke-linejoin="round"/>
<path d="M8.45996 18.236V19.748C8.45996 20.161 8.68996 20.5 8.97296 20.5H11.026C11.311 20.5 11.54 20.16 11.54 19.748V18.236M9.21996 7.69601C8.6295 7.69628 8.06331 7.93103 7.64588 8.34864C7.22845 8.76626 6.99396 9.33255 6.99396 9.92301M17.332 10.904H19.166M15.486 4.89201L16.787 3.59101M16.486 16L17.787 17.3M9.99996 1.37701V2.86001M3.23996 3.59001L4.53196 4.89201M2.23996 17.3L3.53196 16M2.66796 10.904H0.834961" stroke="#9E75F0" stroke-width="1.5" stroke-linecap="round" stroke-linejoin="round"/>
</svg>
